<?xml version="1.0" encoding="UTF-8"?>
<svg xmlns="http://www.w3.org/2000/svg" version="1.1" viewBox="0 0 500 500">
  <!-- Generator: Adobe Illustrator 29.7.1, SVG Export Plug-In . SVG Version: 2.1.1 Build 8)  -->
  <defs>
    <style>
      .st0 {
        fill: #c4cac3;
      }

      .st1, .st2, .st3, .st4, .st5 {
        fill: #802d20;
      }

      .st1, .st4, .st6 {
        stroke: #802d20;
        stroke-miterlimit: 10;
      }

      .st7 {
        fill: #fef7ee;
      }

      .st8 {
        fill: #c96148;
      }

      .st2 {
        font-family: JumpZingera-Regular, JumpZingera;
        font-size: 46.92px;
      }

      .st4, .st6 {
        stroke-width: .5px;
      }

      .st6, .st9 {
        fill: #f2e7df;
      }

      .st10 {
        display: none;
      }

      .st11 {
        fill: #dca792;
      }

      .st5 {
        font-family: Moomello-Regular, Moomello;
        font-size: 108.66px;
      }
    </style>
  </defs>
  <g id="Camada_1" class="st10">
    <rect class="st9" x=".45" y=".09" width="500" height="500"/>
  </g>
  <g id="Camada_2">
    <text class="st5" transform="translate(81.74 326.01) scale(1.24 1)"><tspan x="0" y="0">COOKERIA</tspan></text>
    <text class="st2" transform="translate(319.48 232.2) scale(.82 1)"><tspan x="0" y="0">Let’s</tspan></text>
    <g>
      <g>
        <path class="st3" d="M78.48,231.15c-.56-.89.31-1.5.03-3.42-.26-1.8-1.16-2.25-1.46-3.42-.63-2.46,2.21-4.77,4.07-7.06,1.93-2.37,2.47-5.55,4.43-11.66,3.23-10.14-.26-13.45,1.46-21.23,2.1-9.48,10.31-18.25,20.27-22.01,0,0,15.13-6.61,29.15,2.75,2.1,1.41,3.23,2.98,4.06,4.01,1.93,2.41,3.84,4.8,3.01,6.83-.77,1.87-3.42,2.35-3.62,2.38-2.53.42-4.63-1.09-6.94-2.75-1.22-.88-3-2.36-4.71-4.66-3.54,7.13-9.69,13.02-17.09,16.39.24,2.98.47,6-.16,8.93-.63,2.92-2.26,5.78-4.95,7.26-1.58.86-3.44,1.22-4.87,2.29-1.65,1.23-2.5,3.39-2.12,5.37s1.98,3.7,3.98,4.28c2.14.62,4.65.03,6.55,1.18,2.03,1.23,1.97,4.23,1.88,5.32,0,.09-.02.18-.03.36-.24,2.35-.49,4.78-1.79,6.19-1.02,1.11-1.6.42-3.13,1.51-2.78,1.98-1.63,4.83-3.89,6.13-1.98,1.13-3.47-.69-6.04.55-2.2,1.06-2.22,2.92-3.6,2.92-1.8,0-2.06-3.16-4.77-3.76-1.53-.34-2.42.45-3.51-.28-.97-.66-.54-1.47-1.46-2.45-1.53-1.63-3.85-.58-4.71-1.94Z"/>
        <path class="st3" d="M80.64,229.89l.15.67c-.07.33-.08.35-.01.04.06-.12.08-.37.11-.49.12-.65.21-1.31.18-1.97-.07-1.34-.47-2.59-1.17-3.74-.39-.64-.59-.66-.27-1.36.5-1.08,1.45-1.97,2.23-2.84,1.46-1.63,2.54-3.23,3.35-5.27.87-2.17,1.45-4.46,2.13-6.7.86-2.84,1.68-5.6,2-8.55.22-2.06.14-4.11-.04-6.17-.17-1.9-.36-3.79-.26-5.7.11-2.18.68-4.32,1.47-6.36,1.72-4.45,4.88-8.33,8.49-11.39,1.94-1.65,4.11-3.03,6.38-4.17,1.04-.52,2.12-.92,3.17-1.39-1.07.48-.35.15-.05.03,6.92-2.62,14.94-2.77,21.94.14,2.8,1.16,5.45,2.76,7.4,5.1.91,1.09,1.83,2.22,2.6,3.42.5.78,1.09,1.63.43,2.13.19-.15-.97.44-.52.27-.33.13-.67.22-1.01.29-.24.05.12-.01.14-.01-.36.04-.69.03-1.04-.04-.63-.12-1.19-.42-1.74-.73-2.44-1.41-4.57-3.16-6.31-5.45-1.04-1.36-3.38-1.85-4.32,0-3.48,6.9-9.19,12.26-16.2,15.5-.73.34-1.3,1.36-1.24,2.16.29,3.62.74,7.7-1.05,11.03-.75,1.39-1.77,2.49-3.2,3.19-1.7.84-3.51,1.27-5.01,2.49-2.95,2.39-3.81,6.77-1.88,10.06.94,1.61,2.43,2.84,4.15,3.52s3.56.52,5.37.79c1.35.2,1.71.63,1.91,1.89-.04-.27.02.33.03.42.01.23.01.47,0,.7-.01.58-.09,1.16-.15,1.74-.1.94-.34,3.07-.87,3.6.05-.05-.32.09-.49.13-.44.12-.82.24-1.24.43-.83.37-1.61.92-2.24,1.58-1.18,1.24-1.68,2.74-2.21,4.33-.16.48-.15.64-.44.78s-.46.03-.87-.03c-1.9-.29-3.6-.27-5.34.66-.72.38-1.39.92-1.94,1.53-.26.3-.49.62-.74.93-.04.05-.31.39-.06.07-.05.07-.2.29-.29.31.44-.1.74-.3,1.23-.28.09,0,.25.2.3.19,0,0-.41-.44-.25-.25-.22-.25-.87-1.21-1.27-1.67-1.22-1.4-3.02-2.23-4.88-2.2-.18,0-1.1-.03-1.26.12-.39.35-.02-.16-.05.04,0-.03.57.45.46.51.38-.2-1.35-2.54-1.54-2.71-.76-.73-1.75-1.23-2.78-1.46-.48-.1-1.14-.29-1.61-.23.17-.02-.07-.03-.07-.03-.15.08-.14-.13.27.41-.82-1.07-2.15-1.64-3.42-.9-1.05.62-1.72,2.34-.9,3.42.65.84,1.29,1.44,2.32,1.78.75.25,1.57.23,2.23.41.56.15.5.22.67.64.43,1.07.97,1.95,2,2.55.84.49,1.76.61,2.7.55.68-.05,1.28-.2,1.79.12.15.09.7.74.78.85.4.54.78,1.13,1.28,1.59,1.29,1.2,3.22,1.61,4.79.66,1.36-.82,1.51-2.17,2.93-2.72,1.27-.49,2.79.32,4.25.08,1.87-.31,3.37-1.58,4.11-3.3.49-1.13.59-2.57,1.52-3.4.55-.49.88-.44,1.55-.64.94-.28,1.73-.83,2.36-1.58,1.28-1.52,1.76-3.45,2.03-5.37.2-1.42.43-2.88.3-4.32-.15-1.72-.61-3.43-1.79-4.74-1.43-1.59-3.51-2.05-5.56-2.22-1.5-.12-3.13,0-4.27-1.16-.91-.94-1.1-2.22-.51-3.38.88-1.73,3.33-2.12,4.94-2.88,2-.94,3.63-2.56,4.8-4.42,2.67-4.26,2.49-9.39,2.11-14.2l-1.24,2.16c7.69-3.55,14.17-9.71,17.99-17.29h-4.32c1.92,2.52,4.09,4.53,6.69,6.32,2.39,1.66,5.06,2.85,8.02,2.19,2.36-.53,4.68-2.11,5.27-4.57.82-3.46-1.98-6.49-3.95-8.98-7.07-8.91-20.13-10.97-30.72-8.64-1.36.3-2.71.67-4.02,1.15-.23.09-.46.18-.69.27-.21.09-.42.18-.63.27-.19.08,1.07-.41-.14.03-.8.3-1.59.66-2.36,1.03-5.34,2.53-10.01,6.44-13.56,11.15-3.34,4.42-5.6,9.72-5.93,15.28-.26,4.36.91,8.66.15,13.02-.59,3.43-1.82,6.78-2.84,10.11-.34,1.12-.77,2.44-1.13,3.17-.56,1.17-.92,1.6-1.64,2.41-2.18,2.47-5.05,5.37-3.82,8.98.42,1.24,1.3,1.91,1.3,3.18,0,.34-.11.68-.19,1.17-.16.99-.03,1.82.44,2.72,1.49,2.85,5.81.33,4.32-2.52Z"/>
      </g>
      <path class="st1" d="M125.81,187.09c.04.36-2.29.26-4.88,2.01-2.19,1.48-2.92,3.17-3.2,3-.35-.21.22-3.2,2.42-4.67,2.35-1.57,5.61-.76,5.66-.34Z"/>
      <path class="st1" d="M142.06,182.64c-.07.27-1.77-.35-4.17.29-2.03.55-3.04,1.59-3.2,1.4-.2-.24,1.05-2.25,3.09-2.78,2.18-.57,4.36.78,4.28,1.09Z"/>
      <ellipse class="st1" cx="124.34" cy="196.02" rx="2.19" ry="2.12"/>
      <ellipse class="st1" cx="139.87" cy="191.03" rx="2.19" ry="2.12"/>
      <ellipse class="st1" cx="136.16" cy="198.56" rx="2.28" ry="1.06" transform="translate(-64.77 65.92) rotate(-22.13)"/>
      <path class="st3" d="M128.74,206.19c.2.1.39.2.58.31.09.06.19.12.28.18.02.02.24.17.12.08.33.25.62.55.89.87.02.02.18.23.09.11.05.07.1.14.15.21.12.18.24.37.34.56.05.1.1.19.15.29.02.05.12.27.06.12.08.2.15.41.21.61.05.19.1.37.14.57.01.07.05.29.03.11.01.11.02.21.03.32.01.21.02.43,0,.64,0,.11-.01.21-.02.32.01-.14,0-.02,0,.05-.08.45-.18.8-.35,1.09-.04.08-.09.15-.14.23.08-.12-.07.08-.1.11-.03.03-.22.2-.1.1-.11.08-.23.14-.35.2-.61.3-.77,1.16-.45,1.71.36.62,1.1.75,1.71.45,2.24-1.1,2.61-4.14,2.08-6.31s-2.07-4.11-4.08-5.08c-.61-.29-1.35-.17-1.71.45-.32.55-.16,1.41.45,1.71h0Z"/>
      <path class="st1" d="M142.55,207.13c.33,2.45-2.62,4.53-3.1,4.86-.93.65-1.99,1.39-3.44,1.29-1.22-.09-2.89-.8-3.2-2.11-.29-1.25.81-2.39,1.25-2.85.51-.53.66-.45,2.31-1.47,2.01-1.24,2.41-1.75,3.51-1.85.38-.04,1.03-.09,1.62.28.87.54,1.02,1.62,1.05,1.85Z"/>
      <ellipse class="st9" cx="105.11" cy="209.38" rx="5.45" ry="5.27"/>
      <ellipse class="st7" cx="69.71" cy="194.49" rx=".06" ry=".6"/>
      <path class="st3" d="M111.96,231.53c3.22,3.48,7.97,5.4,12.7,5.26,1.6-.05,1.61-2.55,0-2.5-4.11.13-8.13-1.5-10.93-4.52-1.1-1.18-2.86.59-1.77,1.77h0Z"/>
      <path class="st3" d="M128,231.49c.88-2.28,1.77-4.56,2.65-6.84.24-.61-.26-1.4-.87-1.54-.72-.16-1.28.22-1.54.87-.88,2.28-1.77,4.56-2.65,6.84-.24.61.26,1.4.87,1.54.72.16,1.28-.22,1.54-.87h0Z"/>
      <path class="st3" d="M150.78,241.47c.2-2.29,1.03-4.5,2.38-6.36s3.25-3.16,3-5.67c-.11-1.04-.53-1.99-.94-2.94-.38-.87-1.4-2.85-.28-3.55,1.03-.64,1.96,1.12,2.33,1.82.54,1,1.05,1.96,1.95,2.68,1.23.99,2.91-.58,1.77-1.77-.8-.84-5.05-6.26-2.88-7.09,1.3-.5,2.06,2.06,2.43,2.86.51,1.13,1.18,2.06,2.23,2.72,1.3.82,2.32-.92,1.51-1.96-.68-.88-5.18-6.85-3.4-7.39,1.18-.36,2.07,1.31,2.51,2.11.61,1.13,1.19,2.24,2.16,3.09,1.21,1.06,2.98-.71,1.77-1.77-1.49-1.31-1.88-3.42-3.35-4.77-1.29-1.19-3.34-1.65-4.85-.59-1.75,1.23-1.33,3.42-.52,5.08,1.05,2.15,2.44,4.13,3.91,6.01l1.51-1.96c-1.67-1.05-1.71-3.58-3.16-4.92-1.34-1.25-3.51-1.5-4.83-.08-2.81,3.01,1.04,8.21,3.18,10.44l1.77-1.77c-2-1.61-2.23-5.07-5.33-5.34s-4.17,3.14-3.35,5.6c.43,1.28,1.47,2.66,1.39,4.05s-1.67,2.5-2.45,3.53c-1.75,2.32-2.72,5.06-2.97,7.95-.14,1.6,2.36,1.59,2.5,0h0Z"/>
      <path class="st3" d="M163.55,241.12c1.96-3.83,4.09-7.62,5.79-11.58,1.33-3.1,2.25-6.33,2.12-9.74-.24-6.07-3.34-11.79-8.67-14.85-2.3-1.33-5.01-2.16-7.66-2.39-3.15-.28-5.86.84-7.63,3.52-.56.86-.59,2.09-1.24,2.82-.49.55-1.26.73-1.88,1.09-.68.4-1.28.95-1.7,1.61-.83,1.31-.95,2.93-1.13,4.42-.17,1.35-.26,2.7-.13,4.06.62,6.38,5.77,11.36,12.03,12.3,1.57.24,2.25-2.17.66-2.41-4.49-.68-8.63-3.66-9.87-8.17-.67-2.41-.48-5.26.1-7.69.36-1.49,1.23-1.88,2.47-2.55s1.91-1.62,2.26-2.92c1.37-5.12,7.82-3.8,11.41-2.09,4.76,2.27,7.81,6.9,8.39,12.11.39,3.5-.48,6.85-1.88,10.03-1.67,3.8-3.71,7.46-5.61,11.15-.73,1.43,1.42,2.7,2.16,1.26h0Z"/>
      <ellipse class="st4" cx="149.53" cy="217.29" rx="1.61" ry="1.55"/>
      <ellipse class="st4" cx="155.28" cy="210.19" rx="1.61" ry="1.55"/>
      <path class="st3" d="M110.08,218.77c9.65,7.72,23.44,7.68,33.03-.1,1.25-1.01-.53-2.77-1.77-1.77-8.45,6.86-21,6.9-29.5.1-1.24-1-3.02.76-1.77,1.77h0Z"/>
      <path class="st3" d="M151.63,205.06c1.44-4.66-.57-9.36-2.08-13.73-1.68-4.86-3.36-9.72-5.04-14.58-.52-1.51-2.94-.86-2.41.66,1.57,4.55,3.15,9.1,4.72,13.65,1.43,4.13,3.78,8.9,2.4,13.33-.48,1.54,1.94,2.2,2.41.66h0Z"/>
      <ellipse class="st4" cx="107.74" cy="212.77" rx=".53" ry=".51"/>
      <path class="st6" d="M129.44,165.58c-10.01-4.3-23.2-.39-31.74,9.33-8.33,9.49-10.36,22.38-4.86,31.31.02-2.52.41-13.91,9.54-25.04,10.76-13.12,25.01-15.32,27.06-15.6Z"/>
    </g>
  </g>
  <g id="Camada_5" class="st10">
    <circle class="st9" cx="125" cy="420.19" r="23.88"/>
    <circle class="st11" cx="186.16" cy="420.19" r="23.88"/>
    <circle class="st0" cx="246.24" cy="420.19" r="23.88"/>
    <circle class="st8" cx="304.69" cy="420.19" r="23.88"/>
  </g>
</svg>